<?xml version="1.0" encoding="UTF-8" standalone="no"?>
<!-- Created with Inkscape (http://www.inkscape.org/) -->

<svg
   xmlns:dc="http://purl.org/dc/elements/1.1/"
   xmlns:cc="http://creativecommons.org/ns#"
   xmlns:rdf="http://www.w3.org/1999/02/22-rdf-syntax-ns#"
   xmlns:svg="http://www.w3.org/2000/svg"
   xmlns="http://www.w3.org/2000/svg"
   xmlns:sodipodi="http://sodipodi.sourceforge.net/DTD/sodipodi-0.dtd"
   xmlns:inkscape="http://www.inkscape.org/namespaces/inkscape"
   id="svg2"
   version="1.1"
   inkscape:version="0.91 r13725"
   xml:space="preserve"
   width="1024"
   height="1024"
   viewBox="0 0 1024 1024"
   sodipodi:docname="palm_tree_pin.svg"
   inkscape:export-filename="/Users/tl/Downloads/Download Temp/palm_trees/palms_silhouettes/palm_tree.png"
   inkscape:export-xdpi="90"
   inkscape:export-ydpi="90"><metadata
     id="metadata8"><rdf:RDF><cc:Work
         rdf:about=""><dc:format>image/svg+xml</dc:format><dc:type
           rdf:resource="http://purl.org/dc/dcmitype/StillImage" /><dc:title></dc:title></cc:Work></rdf:RDF></metadata><defs
     id="defs6"><clipPath
       clipPathUnits="userSpaceOnUse"
       id="clipPath18"><path
         d="M 0,485.035 648.988,485.035 648.988,0 0,0 0,485.035 Z"
         id="path20"
         inkscape:connector-curvature="0" /></clipPath><clipPath
       clipPathUnits="userSpaceOnUse"
       id="clipPath316"><path
         d="M 0,485.035 648.988,485.035 648.988,0 0,0 0,485.035 Z"
         id="path318"
         inkscape:connector-curvature="0" /></clipPath></defs><sodipodi:namedview
     pagecolor="#ffffff"
     bordercolor="#666666"
     borderopacity="1"
     objecttolerance="10"
     gridtolerance="10"
     guidetolerance="10"
     inkscape:pageopacity="0"
     inkscape:pageshadow="2"
     inkscape:window-width="1920"
     inkscape:window-height="1151"
     id="namedview4"
     showgrid="false"
     inkscape:showpageshadow="false"
     inkscape:zoom="0.33318264"
     inkscape:cx="-7.2347356"
     inkscape:cy="487.98915"
     inkscape:window-x="1920"
     inkscape:window-y="0"
     inkscape:window-maximized="0"
     inkscape:current-layer="g10" /><g
     id="g10"
     inkscape:groupmode="layer"
     inkscape:label="FreeVector-Palms-Silhouettes"
     transform="matrix(1.25,0,0,-1.25,0,1024)"><path
       style="opacity:1;fill:#000000;fill-opacity:1;stroke:none;stroke-width:0.75;stroke-linecap:round;stroke-linejoin:round;stroke-miterlimit:4;stroke-dasharray:none;stroke-dashoffset:69.34999847;stroke-opacity:1"
       d="M 512 0 A 512.00001 512.00001 0 0 0 0 512 A 512.00001 512.00001 0 0 0 512 1024 A 512.00001 512.00001 0 0 0 1024 512 A 512.00001 512.00001 0 0 0 512 0 z M 344.16016 98.060547 L 349.72656 99.847656 C 349.72656 99.847656 352.813 102.88621 357.13281 110.23047 C 361.49506 117.55682 370.18897 126.02647 372.08008 131.56836 C 373.97782 137.00748 380.70898 135.14453 380.70898 135.14453 L 383.68164 129 C 383.68164 129 389.88042 130.12416 397.32227 144.80078 C 404.85787 159.45856 412.32723 174.69973 416.06836 182.66211 C 419.85967 190.56367 422.35742 196.06055 422.35742 196.06055 L 429.67383 189.85938 C 429.67383 189.85938 437.55713 183.66497 437.72266 198.96484 C 437.86318 214.29941 437.25895 218.62979 440.97656 223.49609 C 444.72014 228.37901 449.79297 246.70898 449.79297 246.70898 L 457.19531 251.51562 C 457.19531 251.51562 458.55324 263.79958 460.51172 274.78906 C 462.44502 285.80469 472.87109 287.56836 472.87109 287.56836 C 472.87109 287.56836 476.02672 296.70446 476.76367 307.78516 C 477.44742 318.76419 486.12695 325.4375 486.12695 325.4375 C 486.12695 325.4375 492.84971 323.56696 492.9668 337.64453 C 493.10177 351.76453 495.91992 389.15234 495.91992 389.15234 C 495.91992 389.15234 485.42273 381.26484 482.9082 375.77734 C 480.35947 370.29048 478.51952 364.75584 469.79297 351.36914 C 461.09998 337.9476 454.79008 320.21418 451.1582 324.5332 C 447.48438 328.89578 448.77194 333.78119 453.13672 339.86719 C 457.46667 345.91961 466.24347 360.61363 468.74414 366.73438 C 471.20127 372.81316 484.91016 394.18359 484.91016 394.18359 L 484.9707 403.35156 C 484.9707 403.35156 467.62303 381.38278 459.59766 375.32227 C 451.53886 369.30517 445.38414 362.61921 436.74609 355.35547 C 428.08208 348.07511 425.63351 349.30123 419.41016 340.79492 C 413.22069 332.27087 408.84375 325.54492 408.84375 325.54492 L 416.16211 324.90234 C 416.16211 324.90234 411.21731 315.7231 401.27344 305.4043 C 391.4149 295.07535 377.11951 278.01217 374.04688 275.62305 C 370.93955 273.2089 364.69922 260.99023 364.69922 260.99023 C 364.69922 260.99023 372.69082 261.53456 373.25781 258.45312 C 373.85076 255.38832 367.6915 255.42582 362.04102 237.73047 C 356.32985 219.99348 345.16161 205.95098 344.49805 199.26562 C 343.83242 192.46912 339.3807 176.60711 339.36914 174.15234 C 339.34903 171.69774 330.74228 169.31862 339.90234 167.41992 C 349.10484 165.50333 344.72984 155.72044 344.65234 150.1875 C 344.60983 144.69668 344.16016 98.060547 344.16016 98.060547 z M 741.47656 158.89648 C 750.82842 158.9691 758.03711 159.82812 758.03711 159.82812 L 742.81445 171.00977 C 742.81445 171.00977 776.49656 167.60191 787.56641 169.95312 C 798.60142 172.27076 809.72266 180.14648 809.72266 180.14648 L 757.63086 182.50391 C 757.63086 182.50391 766.84995 187.95178 769.94531 189.72461 C 773.04179 191.55728 761.4398 195.96579 749.79102 196.05469 C 738.08285 196.17036 728.97983 201.14688 728.38672 204.20312 C 727.81989 207.29312 735.80078 210.91602 735.80078 210.91602 C 735.80078 210.91602 715.64588 217.22028 707.68359 219.13086 C 699.72114 221.03288 686.27344 222.36914 686.27344 222.36914 L 682.67383 233.48828 C 682.67383 233.48828 664.39714 244.69363 658.92578 250.82617 C 653.44842 257.09568 658.3713 252.75994 655.2832 258.25781 C 652.29884 263.81364 641.34375 271.26367 641.34375 271.26367 L 620.55078 276.38086 L 620.63672 289.25391 C 620.63672 289.25391 599.97177 301.69199 597.5 303.54297 C 595.07129 305.41024 582.2168 311.07227 582.2168 311.07227 C 582.2168 311.07227 573.16662 323.41355 567.07422 328.35156 C 560.95791 333.38411 553.69336 341.97852 553.69336 341.97852 L 537.19141 346.45312 C 537.19141 346.45314 537.24754 353.20932 536.66797 355.61523 C 536.05579 358.10728 512.87936 373.02177 508.68359 377.37695 C 504.42752 381.70762 509.09713 361.43209 511.58008 360.17969 C 513.98574 358.91163 523.67722 342.91556 528.55664 336.69141 C 533.34362 330.55452 536.37599 322.52659 538.19141 319.42188 C 540.00794 316.37703 536.23047 309.64648 536.23047 309.64648 C 536.23047 309.64648 533.24663 315.20208 529.58008 319.49609 C 525.94078 323.87513 516.79469 332.51355 515.02734 334.98438 C 513.19964 337.43066 505.32422 346.73047 505.32422 346.73047 C 505.32422 346.73047 500.82729 330.86109 500.24219 328.38281 C 499.58075 325.94016 501.93359 316.72656 501.93359 316.72656 C 501.93359 316.72656 511.60449 298.18944 515.79883 291.46484 C 520.0261 284.67118 526.0293 268.04102 526.0293 268.04102 L 535.2168 266.76758 C 535.2168 266.76758 547.94354 250.65364 555.20703 240.16797 C 562.47053 229.68228 579.50781 216.6543 579.50781 216.6543 L 594.86523 215.93164 C 594.86523 215.93164 605.12147 203.58445 613.01758 196.74805 C 620.9816 189.88472 627.6543 184.32812 627.6543 184.32812 L 628.93945 192.27734 C 628.93945 192.27734 639.95742 187.27326 645.99805 182.31055 C 652.1416 177.36302 658.1996 172.37414 671.00586 165.54883 C 683.81085 158.6551 686.30469 161.66992 686.30469 161.66992 L 682.0918 171.55273 C 682.0918 171.55273 694.91799 168.97783 712.0625 162.6875 C 720.63041 159.53814 732.1247 158.82387 741.47656 158.89648 z M 596.75 359.70703 C 618.06054 359.57843 628.00784 368.6074 669.98633 380.16797 C 721.59214 394.38891 754.56575 444.31071 770.72656 468.75586 C 786.90257 493.09808 792.64322 515.1452 794.5332 524.29688 C 796.48337 533.46452 795.89876 540.2067 793.49609 543.92969 C 791.10151 547.62686 786.03516 535.99414 786.03516 535.99414 L 763.60547 495.12305 L 753.21484 498.90039 C 753.21484 498.90039 750.11036 495.27202 744.5 484.31641 C 738.87981 473.29256 722.85742 463.68555 722.85742 463.68555 L 719.81445 467.93359 C 719.81445 467.93359 698.22153 453.48786 684.68164 444.36523 C 671.07462 435.31228 663.7168 432.92578 663.7168 432.92578 L 661.41016 446.44141 C 661.41016 446.44141 650.25154 436.1186 632.92969 422.80664 C 615.65027 409.47678 604.02344 412.07227 604.02344 412.07227 L 605.39453 425.51953 C 605.39453 425.51953 585.66229 412.79863 573.32422 408.0332 C 561.01147 403.25019 548.76187 402.76961 542.62695 402.2168 C 536.45703 401.62187 523.63999 406.03504 518.15234 408.54102 C 512.63934 411.06458 505.27494 411.09839 502.83008 409.34766 C 500.32298 407.46978 508.875 400.04883 508.875 400.04883 L 511.83984 390.22461 C 511.83984 390.22461 525.85117 381.49466 529.52539 378.98828 C 533.16637 376.53384 544.13922 367.20274 579.64844 361.33984 C 586.30986 360.25331 591.83218 359.73671 596.75 359.70703 z M 402.58789 373.83984 C 414.56085 373.73875 422.10781 375.03643 431.38672 377.50391 C 444.89913 381.02422 454.76562 384.00586 454.76562 384.00586 L 454.79883 388.92383 C 454.79883 388.92383 412.46663 386.2238 404.50781 386.94531 C 396.56533 387.62376 382.47519 390.78582 403.91016 391.18164 C 425.41447 391.6275 436.4732 393.38965 446.29492 395.78125 C 456.12408 398.11281 467.86914 407.79883 467.86914 407.79883 C 467.86914 407.79883 457.98323 402.37986 433.51758 406.89062 C 409.04307 411.38445 399.86716 411.49529 390.75586 421.97266 C 381.611 432.48487 378.01304 438.65944 373.71484 439.35547 C 369.44039 439.94841 366.9375 433.26367 366.9375 433.26367 C 366.9375 433.26367 369.31032 426.49616 352.83008 434.00586 C 336.35887 441.54106 303.55943 474.91325 298.10352 480.49805 C 292.62227 486.10042 288.32617 485.48828 288.32617 485.48828 C 288.32617 485.48828 293.13438 476.87096 287.64648 477.5293 C 282.09952 478.2315 278.41728 477.01692 271.75781 483.19727 C 265.06479 489.41247 239.50032 513.52294 232.24023 520.98047 C 224.97127 528.42107 218.88944 533.37579 217.68945 538.29102 C 216.48059 543.18929 210.28125 531.00391 210.28125 531.00391 C 210.28125 531.00391 200.5167 538.48292 190.15039 542.20898 C 179.7681 545.99523 163.95481 564.55248 161.53711 567.00977 C 159.12003 569.50127 151.75122 570.17763 149.32227 570.19727 C 146.85959 570.24318 136.43644 572.7655 133.43164 575.84961 C 130.36779 578.9776 123.67543 582.06173 116.3125 584.00391 C 109.00008 585.90236 104.05469 583.53125 104.05469 583.53125 C 104.05469 583.53125 113.00265 556.428 134.19727 527.41992 C 155.38285 498.38635 238.67627 421.57601 285.72461 405.15625 C 332.78311 388.82184 357.82964 376.94353 382.93945 374.86719 C 390.78899 374.22095 397.14564 373.88579 402.58789 373.83984 z M 452.62109 414.06055 L 459.4043 417.67188 C 459.4043 417.67188 445.99452 430.68501 442.33984 433.78125 C 438.71099 436.88556 422.21859 443.77838 417.36133 447.52148 C 412.45228 451.23988 399.73321 465.43657 396.08203 467.34375 C 392.40376 469.17445 368.08055 489.65331 361.39844 498.28906 C 354.751 506.94982 346.31341 526.06263 342.71875 532.83594 C 339.09796 539.58406 347.02749 535.86196 351.88477 528.44922 C 356.70767 521.02858 382.21757 495.03582 385.28516 492.56641 C 388.30096 490.07231 427.81889 452.31351 440.60156 444.22266 C 453.41795 436.10552 466.18013 425.61186 471.0918 422.49219 C 475.96892 419.35605 478.45312 423.5957 478.45312 423.5957 C 478.45312 423.5957 478.46538 426.1005 467.53906 437.86914 C 456.61211 449.60358 450.05774 472.92504 442.86328 487.11328 C 435.59929 501.24296 422.94985 522.87176 420.54102 529.01562 C 418.16637 535.15886 411.58398 552.42383 411.58398 552.42383 L 402.86719 542.69727 C 402.86719 542.69727 391.97657 553.2165 387.13086 563.08398 C 382.35323 572.9331 368.49609 598.19531 368.49609 598.19531 L 363.50391 593.29297 C 363.50391 593.29297 359.25448 597.04216 356.82617 600.76562 C 354.43126 604.44571 329.02344 641.4707 329.02344 641.4707 L 325.91797 635.97656 C 325.91797 635.97656 318.03914 650.15924 307.7832 666.22656 C 297.53453 682.22531 291.57812 699.45312 291.57812 699.45312 L 284.74219 693.42188 C 284.74219 693.42186 266.54172 715.64297 264.13867 717.50977 C 261.6748 719.32637 254.27148 712.67188 254.27148 712.67188 L 240.7832 715.875 C 240.7832 715.875 236.42067 706.73549 233.34961 703.05469 C 230.23722 699.45165 233.79578 687.1189 235.60352 682.22656 C 237.37563 677.25791 248.80513 653.83673 248.7832 650.82617 C 248.75147 647.74735 249.29948 637.32814 250.43359 631.17383 C 251.59401 625.05324 274.60461 594.7369 283.10547 581.79883 C 291.54647 568.86188 303.64453 549.73242 303.64453 549.73242 C 303.64453 549.73242 301.79365 547.30223 301.74219 543.625 C 301.67362 539.9481 323.51193 513.35772 328.99414 507.80664 C 334.45053 502.2475 347.77148 484.94336 347.77148 484.94336 C 347.77148 484.94336 350.20222 476.29298 351.39453 473.25977 C 352.55248 470.21864 375.71299 455.85204 389.11133 444.08008 C 402.47547 432.30874 452.62109 414.06055 452.62109 414.06055 z M 514.06055 423.24023 C 514.78803 423.23308 515.67004 423.26335 516.43555 423.25977 C 519.56615 423.25272 531.20313 426.22697 534.90039 426.79102 C 538.54634 427.35602 586.56836 448.98242 586.56836 448.98242 C 586.56836 448.98242 594.05133 459.35566 597.11328 461.17188 C 600.20897 462.96179 601.46842 463.53864 611.95703 471.41797 C 622.45403 479.28859 636.75391 501.26953 636.75391 501.26953 C 636.75391 501.26953 638.05461 512.26411 641.76367 513.46094 C 645.4382 514.64129 647.91934 518.30682 652.28516 526.2832 C 656.68342 534.16489 665.375 545.74805 665.375 545.74805 L 659.27148 551.92578 L 658.14648 558.09766 L 668.02344 566.5957 C 668.02344 566.5957 677.94088 580.56755 680.45898 586.70508 C 682.98467 592.79115 678.68555 593.48633 678.68555 593.48633 C 678.68555 593.48633 678.14119 599.5965 679.99414 602.63281 C 681.85547 605.66041 690.61719 622.75 690.61719 622.75 L 694.44727 636.84375 L 690.12305 637.48828 C 690.12305 637.48828 689.58087 640.54376 692.07031 647.89648 C 694.58524 655.24017 695.85234 659.50971 702.83203 683.34766 C 709.80366 707.21142 706.2207 718.27148 706.2207 718.27148 C 706.2207 718.27148 695.60067 696.89558 691.86328 689.5918 C 688.10847 682.27122 684.38209 677.39752 681.91016 675.57031 C 679.47242 673.74246 676.36328 674.42383 676.36328 674.42383 C 676.36328 674.42383 668.25227 655.48329 661.34961 640.82227 C 654.48113 626.1606 652.06445 636.01758 652.06445 636.01758 L 648.48633 642.78125 C 648.48633 642.78125 644.09504 629.33148 640.96484 623.85547 C 637.86029 618.37897 631.59006 605.51933 625.3125 592.72852 C 619.09366 579.87673 618.58984 590.94531 618.58984 590.94531 C 618.58984 590.94531 613.78027 599.56338 612.50586 595.90039 C 611.20581 592.2379 609.92622 587.33581 608.70312 583.67188 C 607.411 579.975 601.79144 567.16228 599.88672 560.43164 C 597.97346 553.70117 592.50781 556.86523 592.50781 556.86523 L 588.28516 564.84766 C 588.28516 564.84766 587.64805 560.57473 583.86719 551.39844 C 580.0952 542.23909 578.21341 536.73073 576.3125 528.82812 C 574.38451 520.84906 572.57031 522.08984 572.57031 522.08984 L 564.59766 525.80469 C 564.59766 525.80469 561.46962 515.42695 558.95508 509.93945 C 556.44943 504.46889 542.77969 485.55564 532.19141 467.28516 C 521.58556 448.98933 512.39018 445.40592 501.25391 436.28125 C 490.13506 427.17335 515.38877 437.39455 519.67383 439.20508 C 523.99357 441.0406 535.10324 450.10518 543.7207 454.88867 C 552.37364 459.73992 557.28516 460.27344 557.28516 460.27344 C 557.28516 460.27344 550.99282 448.07234 541.12891 440.20703 C 531.23902 432.32509 529.39844 429.87032 518.92969 426.26758 C 511.0792 423.62325 511.87809 423.26169 514.06055 423.24023 z M 488.93359 432.72656 C 488.93359 432.72656 498.89863 449.18549 515.08398 473.57031 C 531.26031 497.92964 531.8001 494.8409 537.44531 505.83008 C 543.10002 516.87039 548.0865 527.86257 546.21875 525.4082 C 544.36857 522.97918 537.00961 524.23764 534.58984 527.96094 C 532.18623 531.63262 540.18893 538.31037 545.90039 556.06445 C 551.58557 573.78482 551.01431 581.14326 556.06055 593.95703 C 561.09951 606.83938 555.58797 611.80065 553.69727 604.44531 C 551.81512 597.08982 543.73246 586.13614 542.5293 588.58789 C 541.29258 591.07448 541.53823 610.65835 542.17773 617.42969 C 542.83337 624.14939 547.39258 651.68555 547.39258 651.68555 L 542.58203 661.54297 L 544.78125 694.64844 L 534.92969 694.73047 C 534.92969 694.73047 536.26256 702.0617 534.00586 727.83398 C 531.78385 753.63127 517.2721 772.12967 517.79688 767.24414 C 518.42395 762.3396 516.40192 747.02475 515.69141 735.98633 C 514.98202 725.00777 512.20002 691.87053 506.5918 677.81836 C 500.91517 663.76747 504.11922 677.83692 494.24414 669.37305 C 484.35939 660.84947 492.87629 658.37275 487.26758 644.29492 C 481.61597 630.20935 479.10938 626.60352 479.10938 626.60352 C 479.10938 626.60352 472.34273 624.18226 469.24023 621.10938 C 466.17402 618.14701 468.84766 581.33984 468.84766 581.33984 C 468.84766 581.33984 469.25794 555.55928 465.55078 553.08789 C 461.87957 550.70992 459.37036 548.30969 457.42188 539.68945 C 455.50932 531.16264 460.36635 523.70699 461.54688 520.04102 C 462.76175 516.38294 462.73071 513.32235 463.31836 510.89062 C 463.87923 508.39953 468.66011 490.50992 469.19336 483.78516 C 469.72695 477.07748 469.06222 470.30669 471.42578 461.73438 C 473.80564 453.11895 476.84961 447.57031 476.84961 447.57031 L 481.21289 456.73633 L 483.67578 458.55469 L 482.52734 467.12891 C 482.52734 467.12891 487.46733 471.99797 488.11133 474.42383 C 488.74679 476.84984 489.49219 491.60156 489.49219 491.60156 C 489.49219 491.60156 491.97166 493.40245 494.99023 491.51562 C 498.07785 489.66175 492.94549 467.60202 492.92578 463.33398 C 492.87139 459.04092 489.66711 444.9882 487.14062 438.85938 C 484.65754 432.76395 488.93359 432.72656 488.93359 432.72656 z M 443.11914 537.65039 C 444.48973 537.69811 445.88631 538.25596 447.05078 539.7793 C 450.74321 544.67172 451.45617 556.27534 452.15039 560.01758 C 452.78268 563.64975 460.19351 573.39912 459.66992 580.18359 C 459.10262 586.91756 461.6144 595.49334 453.76562 603.49219 C 445.89248 611.55992 442.16854 612.83548 435.43164 611.65234 C 428.68637 610.47793 415.09139 598.39649 415.0332 595.27539 C 414.99385 592.24804 416.16134 584.21929 414.95312 581.8125 C 413.65861 579.36455 412.36 570.19368 415.96875 564.63477 C 419.62072 559.10072 437.2168 539.91211 437.2168 539.91211 C 437.2168 539.91211 440.10384 537.5454 443.11914 537.65039 z M 398.82422 569.61133 C 404.16652 569.69275 407.48584 572.06792 407.51367 576.37109 C 407.57922 581.26272 407.54451 579.42461 408.27734 591.66016 C 408.97661 603.93056 413.92481 605.11259 416.39453 608.19727 C 418.86251 611.18789 423.20634 616.07797 421.42188 622.21875 C 419.62885 628.35969 414.80088 632.75187 411.74414 635.80273 C 408.73919 638.87831 406.94554 645.02793 395.22852 641.45703 C 383.57118 637.87646 377.96263 629.34965 376.72852 625.0957 C 375.45103 620.80834 374.11182 610.42325 376.50586 604.86133 C 378.89213 599.34233 382.53813 592.55069 386.16992 586.39258 C 389.75025 580.22687 389.71193 570.39972 396.41406 569.71875 C 397.25614 569.63569 398.06103 569.5997 398.82422 569.61133 z M 445.93164 620.13086 L 442.38867 632.41992 C 442.38867 632.41992 438.14488 639.22291 430.78711 640.52344 C 423.44675 641.84075 419.75078 636.34014 426.99805 631.40625 C 434.37198 626.38446 431.85742 620.92188 431.85742 620.92188 L 445.93164 620.13086 z M 384.21875 643.33984 C 384.43552 643.34476 384.6396 643.36526 384.83008 643.40234 C 387.89393 643.94399 389.18359 648.88867 389.18359 648.88867 C 389.18359 648.88867 395.33292 650.65731 399.62891 651.21875 C 403.89164 651.83212 408.19336 648.08203 408.19336 648.08203 L 424.0918 646.11719 L 436.375 647.87305 L 432.14258 652.11719 L 425.4707 660.83008 L 418.20898 671.91406 L 405.4043 675.10352 L 389.4043 670.3125 C 389.4043 670.3125 377.09181 665.55494 375.23047 662.52734 C 373.33429 659.46618 375.04492 646.58594 375.04492 646.58594 C 375.04492 646.58594 380.9672 643.26609 384.21875 643.33984 z M 366.70312 671.14844 L 372.85742 675.42188 C 372.85742 675.42187 376.58837 679.66405 377.85938 682.68555 C 379.10598 685.77592 386.44636 684.47509 395.65234 685.03906 C 404.84818 685.51769 409.16815 689.15959 417.7207 685.41602 C 426.27278 681.64679 426.85352 677.95703 426.85352 677.95703 L 433.60156 677.88281 C 433.60156 677.88281 430.6263 687.12526 428.2207 690.23242 C 425.80593 693.30553 424.60085 698.86111 422.81836 705.56641 C 421.04616 712.36561 413.7268 716.71079 409.43945 717.98828 C 405.11742 719.24076 396.64057 720.53787 386.1582 719.41602 C 375.72794 718.33597 375.07031 711.54688 375.07031 711.54688 C 375.07031 711.54688 372.50133 699.91824 372.44727 691.97266 C 372.35788 683.96784 369.29736 687.69484 365.5625 682.82031 C 361.87071 677.96209 366.70312 671.14844 366.70312 671.14844 z M 361.1582 719.53906 C 361.99655 719.62108 362.90234 720.24414 362.90234 720.24414 C 362.90234 720.24414 374.56745 725.64501 388.07227 729.2168 C 401.62774 732.75342 402.82791 731.55135 410.79297 730.24805 C 418.74124 728.96216 421.76367 722.16602 421.76367 722.16602 L 429.69922 722.08594 C 429.69922 722.08594 426.13339 731.32163 425.55469 735.60938 C 425.00149 739.88809 423.21639 747.31163 422.61133 749.72656 C 422.02464 752.20959 417.8125 757.12109 417.8125 757.12109 C 417.8125 757.12109 398.22929 761.03763 390.8457 762.33008 C 383.53035 763.61272 374.90039 760.01758 374.90039 760.01758 C 374.90039 760.01758 372.35147 750.80938 370.50781 745.97656 C 368.60221 741.03371 366.72558 740.43533 361.69922 728.22852 C 358.90048 721.34721 359.63188 719.68225 360.80664 719.54102 C 360.92085 719.52728 361.03844 719.52735 361.1582 719.53906 z M 431.33594 758.96875 L 427.86133 778.16016 L 425.74609 787.71094 C 425.74609 787.71094 420.71082 796.54856 416.35742 800.24805 C 412.02113 803.94721 401.03491 803.30342 387.10156 805.65039 C 373.24437 807.95317 379.05124 800.61821 376.03906 795.50781 C 373.06964 790.39661 370.84272 787.49408 367.77344 772.89844 C 364.72916 758.26811 367.73438 766.17773 367.73438 766.17773 L 371.35352 763.94531 C 371.35352 763.94531 373.61944 767.54642 383.89844 771.98242 C 394.15177 776.41891 392.70447 774.06907 397.06641 774.03906 C 401.47158 774.0339 406.5868 773.96295 413.9043 770.96094 C 421.19711 768.01071 423.33984 760.49609 423.33984 760.49609 L 431.33594 758.96875 z M 433.29297 793.49219 L 435.63867 811.02734 C 435.63867 811.02734 432.73312 828.6599 432.03711 833.07812 C 431.37545 837.5043 421.17578 845.58008 421.17578 845.58008 C 421.17578 845.58008 402.90456 851.05392 397.82031 851.79883 C 392.67716 852.59614 386.76243 845.92264 386.01172 843.73828 C 385.26101 841.55392 381.53038 836.48308 377.13086 829.91016 C 372.62952 823.38192 372.5957 816.01758 372.5957 816.01758 C 372.5957 816.01758 393.83609 815.15079 404.04688 815.01172 C 414.33557 814.92252 415.70642 810.50084 420.82617 807.53125 C 425.91203 804.57941 427.33789 795.75 427.33789 795.75 L 433.29297 793.49219 z M 439.58203 842.53125 L 444.78711 849.16602 C 444.78711 849.16602 442.73043 868.22031 442.79883 871.88867 C 442.78124 875.53297 441.41138 881.44321 439.29688 887.31641 C 437.13977 893.19896 424.51457 891.84336 415.82812 894.82812 C 407.05712 897.8658 404.8187 895.67444 398.17383 892.08594 C 391.53782 888.51439 389.32973 884.83477 384.11914 874.67578 C 378.87308 864.44902 383.20117 857.06445 383.20117 857.06445 L 405.18359 859.81055 C 405.18359 859.81055 412.54196 859.005 423.45117 855.95312 C 434.45557 852.95935 432.89648 845.49609 432.89648 845.49609 L 439.58203 842.53125 z M 449.55859 889.39062 C 449.55859 889.39064 448.96686 904.0725 448.97461 907.69922 C 449.04332 911.38468 452.00492 920.14882 452.7832 923.8125 C 453.5615 927.47617 448.4707 932.00977 448.4707 932.00977 C 448.4707 932.00977 433.75168 935.8249 430.08398 937.30469 C 426.49372 938.80869 408.15542 941.17791 401.56055 939.8125 C 394.97311 938.38707 397.83204 932.4916 397.03906 926.66406 C 396.24529 920.79376 391.09928 917.79324 385.19141 908.31445 C 379.22368 898.83679 388.00391 899.53711 388.00391 899.53711 C 388.00391 899.53711 399.03609 903.06078 408.54102 905.89453 C 418.1316 908.73523 421.02052 903.59235 432.67383 900.53516 C 444.37942 897.52831 443.72461 891.67188 443.72461 891.67188 L 449.55859 889.39062 z "
       transform="matrix(0.8,0,0,-0.8,0,819.2)"
       id="path5407" /><g
       id="g14"><g
         id="g16"
         clip-path="url(#clipPath18)"><g
           id="g22"
           transform="translate(120.2134,-14.7412)"><path
             d="M 0,0 C -0.02,0.858 -0.779,1.464 -1.62,1.464 -3.472,1.464 -3.765,-0.115 -3.765,-1.52 -3.765,-2.825 -3.198,-4.172 -1.792,-4.172 -0.645,-4.172 -0.059,-3.51 0.098,-2.438 L 3.316,-2.438 C 3.023,-5.146 0.916,-6.709 -1.775,-6.709 -4.816,-6.709 -7.079,-4.62 -7.079,-1.52 -7.079,1.699 -5.031,4.001 -1.775,4.001 0.741,4.001 2.983,2.673 3.219,0 L 0,0 Z"
             style="fill:#000000;fill-opacity:1;fill-rule:nonzero;stroke:none"
             id="path24"
             inkscape:connector-curvature="0" /></g><g
           id="g26"
           transform="translate(128.8208,-10.8154)"><path
             d="M 0,0 C -3.126,0 -5.303,-2.313 -5.303,-5.345 -5.303,-8.374 -3.126,-10.669 0,-10.669 3.127,-10.669 5.326,-8.374 5.326,-5.345 5.326,-2.313 3.127,0 0,0"
             style="fill:#000000;fill-opacity:1;fill-rule:nonzero;stroke:none"
             id="path28"
             inkscape:connector-curvature="0" /></g><g
           id="g30"
           transform="translate(111.4771,-18.3193)"><path
             d="M 0,0 C -0.86,0 -1.458,-0.636 -1.458,-1.468 -1.458,-2.301 -0.86,-2.93 0,-2.93 0.859,-2.93 1.461,-2.301 1.461,-1.468 1.461,-0.636 0.859,0 0,0"
             style="fill:#000000;fill-opacity:1;fill-rule:nonzero;stroke:none"
             id="path32"
             inkscape:connector-curvature="0" /></g><g
           id="g34"
           transform="translate(134.3779,-11.4629)"><path
             d="M 0,0 3.139,0 3.139,-1.352 3.176,-1.352 C 3.767,-0.361 4.811,0.285 6.011,0.285 7.246,0.285 8.349,-0.113 8.881,-1.313 9.662,-0.267 10.63,0.285 11.962,0.285 15.101,0.285 15.442,-2.092 15.442,-3.977 L 15.442,-9.869 12.208,-9.869 12.208,-4.069 C 12.208,-3.005 11.696,-2.379 10.859,-2.379 9.471,-2.379 9.338,-3.441 9.338,-5.04 L 9.338,-9.869 6.105,-9.869 6.105,-4.26 C 6.105,-3.101 5.762,-2.379 4.889,-2.379 3.727,-2.379 3.235,-3.044 3.235,-5.06 L 3.235,-9.869 0,-9.869 0,0 Z"
             style="fill:#000000;fill-opacity:1;fill-rule:nonzero;stroke:none"
             id="path36"
             inkscape:connector-curvature="0" /></g><g
           id="g38"
           transform="translate(68.6528,-21.2285)"><path
             d="M 0,0 -3.686,0 -6.942,9.762 -3.612,9.762 -1.826,3.308 -1.788,3.308 0.019,9.762 3.276,9.762 0,0 Z"
             style="fill:#000000;fill-opacity:1;fill-rule:nonzero;stroke:none"
             id="path40"
             inkscape:connector-curvature="0" /></g><g
           id="g42"
           transform="translate(73.6675,-17.1309)"><path
             d="M 0,0 C 0.056,-1.335 0.831,-2.219 2.184,-2.219 2.951,-2.219 3.704,-1.858 4.002,-1.146 L 6.995,-1.146 C 6.414,-3.403 4.324,-4.383 2.142,-4.383 -1.035,-4.383 -3.199,-2.461 -3.199,0.81 -3.199,3.8 -0.807,5.943 2.068,5.943 5.566,5.943 7.318,3.312 7.168,0 L 0,0 Z"
             style="fill:#000000;fill-opacity:1;fill-rule:nonzero;stroke:none"
             id="path44"
             inkscape:connector-curvature="0" /></g><g
           id="g46"
           transform="translate(87.6758,-15.041)"><path
             d="M 0,0 C -0.02,0.827 -0.752,1.412 -1.562,1.412 -3.35,1.412 -3.63,-0.116 -3.63,-1.469 -3.63,-2.73 -3.083,-4.027 -1.727,-4.027 -0.62,-4.027 -0.059,-3.387 0.096,-2.351 L 3.196,-2.351 C 2.917,-4.965 0.882,-6.473 -1.711,-6.473 -4.645,-6.473 -6.824,-4.459 -6.824,-1.469 -6.824,1.636 -4.851,3.854 -1.711,3.854 0.713,3.854 2.878,2.575 3.104,0 L 0,0 Z"
             style="fill:#000000;fill-opacity:1;fill-rule:nonzero;stroke:none"
             id="path48"
             inkscape:connector-curvature="0" /></g><g
           id="g50"
           transform="translate(96.9478,-13.5371)"><path
             d="M 0,0 -1.971,0 -1.971,-4.439 C -1.971,-5.211 -1.52,-5.38 -0.826,-5.38 -0.564,-5.38 -0.278,-5.341 0,-5.341 L 0,-7.691 C -0.58,-7.709 -1.161,-7.787 -1.749,-7.787 -4.475,-7.787 -5.171,-6.997 -5.171,-4.342 L -5.171,0 -6.788,0 -6.788,2.07 -5.171,2.07 -5.171,5.022 -1.971,5.022 -1.971,2.07 0,2.07 0,0 Z"
             style="fill:#000000;fill-opacity:1;fill-rule:nonzero;stroke:none"
             id="path52"
             inkscape:connector-curvature="0" /></g><g
           id="g54"
           transform="translate(101.3389,-11.1875)"><path
             d="M 0,0 C -3.027,0 -5.135,-2.239 -5.135,-5.17 -5.135,-8.105 -3.027,-10.326 0,-10.326 3.027,-10.326 5.153,-8.105 5.153,-5.17 5.153,-2.239 3.027,0 0,0"
             style="fill:#000000;fill-opacity:1;fill-rule:nonzero;stroke:none"
             id="path56"
             inkscape:connector-curvature="0" /></g><g
           id="g58"
           transform="translate(106.2773,-11.4668)"><path
             d="M 0,0 3.107,0 3.107,-1.711 3.142,-1.711 C 3.612,-0.475 4.7,0.188 6.075,0.188 6.318,0.188 6.582,0.164 6.826,0.114 L 6.826,-2.801 C 6.414,-2.693 6.038,-2.62 5.603,-2.62 4.024,-2.62 3.197,-3.708 3.197,-4.927 L 3.197,-9.762 0,-9.762 0,0 Z"
             style="fill:#000000;fill-opacity:1;fill-rule:nonzero;stroke:none"
             id="path60"
             inkscape:connector-curvature="0" /></g><g
           id="g62"
           transform="translate(36.5967,-11.4668)"><path
             d="M 0,0 3.106,0 3.106,-1.711 3.143,-1.711 C 3.611,-0.475 4.704,0.188 6.078,0.188 6.322,0.188 6.587,0.164 6.827,0.114 L 6.827,-2.801 C 6.415,-2.693 6.042,-2.62 5.604,-2.62 4.029,-2.62 3.198,-3.708 3.198,-4.927 L 3.198,-9.762 0,-9.762 0,0 Z"
             style="fill:#000000;fill-opacity:1;fill-rule:nonzero;stroke:none"
             id="path64"
             inkscape:connector-curvature="0" /></g><g
           id="g66"
           transform="translate(45.4766,-17.1309)"><path
             d="M 0,0 C 0.055,-1.335 0.825,-2.219 2.181,-2.219 2.95,-2.219 3.705,-1.858 4.004,-1.146 L 6.997,-1.146 C 6.411,-3.403 4.326,-4.383 2.145,-4.383 -1.036,-4.383 -3.2,-2.461 -3.2,0.81 -3.2,3.8 -0.81,5.943 2.07,5.943 5.568,5.943 7.315,3.312 7.166,0 L 0,0 Z"
             style="fill:#000000;fill-opacity:1;fill-rule:nonzero;stroke:none"
             id="path68"
             inkscape:connector-curvature="0" /></g><g
           id="g70"
           transform="translate(55.5596,-17.1309)"><path
             d="M 0,0 C 0.055,-1.335 0.826,-2.219 2.182,-2.219 2.951,-2.219 3.704,-1.858 4.005,-1.146 L 6.996,-1.146 C 6.414,-3.403 4.326,-4.383 2.145,-4.383 -1.034,-4.383 -3.196,-2.461 -3.196,0.81 -3.196,3.8 -0.812,5.943 2.07,5.943 5.567,5.943 7.317,3.312 7.167,0 L 0,0 Z"
             style="fill:#000000;fill-opacity:1;fill-rule:nonzero;stroke:none"
             id="path72"
             inkscape:connector-curvature="0" /></g><g
           id="g74"
           transform="translate(36.0156,-10.0605)"><path
             d="M 0,0 C 0.283,0 0.564,-0.018 0.864,-0.055 L 0.864,2.204 C 0.355,2.224 -0.171,2.259 -0.679,2.259 -3.404,2.259 -4.383,1.394 -4.383,-1.406 L -5.924,-1.406 -5.924,-3.477 -4.383,-3.477 -4.383,-11.168 -1.188,-11.168 -1.188,-3.477 0.731,-3.477 0.731,-1.406 -1.188,-1.406 -1.188,-0.975 C -1.188,-0.092 -0.735,0 0,0"
             style="fill:#000000;fill-opacity:1;fill-rule:nonzero;stroke:none"
             id="path76"
             inkscape:connector-curvature="0" /></g><g
           id="g78"
           transform="translate(26.939,-14.5703)"><path
             d="M 0,0 C 0,-3.982 -3.228,-7.212 -7.211,-7.212 -11.194,-7.212 -14.423,-3.982 -14.423,0 -14.423,3.981 -11.194,7.21 -7.211,7.21 -3.228,7.21 0,3.981 0,0"
             style="fill:#ffffff;fill-opacity:1;fill-rule:nonzero;stroke:none"
             id="path80"
             inkscape:connector-curvature="0" /></g><g
           id="g82"
           transform="translate(22.23,-17.8486)"><path
             d="M 0,0 0.019,-0.013 C 0.019,-0.013 0.012,-0.008 0.006,-0.003 0.005,-0.003 0.002,-0.003 0,0 M -3.204,1.693 C -3.554,1.57 -4.02,1.889 -4.227,2.049 -4.404,2.252 -5.469,3.387 -5.592,3.529 -5.858,3.836 -5.655,4.471 -4.998,4.69 -4.812,4.753 -4.527,4.758 -4.354,4.565 -3.578,3.637 -2.768,2.647 -2.708,2.456 -2.608,2.123 -2.792,1.836 -3.204,1.693 M -2.522,10.518 C -3.181,10.518 -3.816,10.432 -4.422,10.272 -4.173,10.251 -4.01,10.094 -3.925,9.78 -3.925,9.78 -2.569,5.295 -2.407,4.791 -2.248,4.285 -2.057,3.732 -2.057,3.732 -2.164,3.643 -2.262,3.529 -2.336,3.38 -2.476,3.089 -2.552,2.853 -2.585,2.617 -2.795,2.977 -3.618,3.985 -4.174,4.657 -4.174,4.657 -4.21,5.103 -4.329,5.53 -4.449,5.955 -5.215,8.839 -5.215,8.839 -5.351,9.375 -5.294,9.841 -5,10.094 -7.829,9.093 -9.854,6.425 -9.854,3.286 -9.854,0.436 -8.18,-2.029 -5.746,-3.207 -5.996,-2.841 -6.284,-2.27 -6.419,-1.464 -6.643,-0.139 -6.687,0.719 -6.855,1.458 -7.078,2.446 -7.011,2.675 -6.671,3.11 -6.503,3.325 -6.312,3.458 -6.134,3.517 -5.956,3.564 -5.772,3.458 -5.704,3.382 -5.276,2.924 -4.458,2.044 -4.358,1.919 -4.16,1.687 -4.133,1.395 -4.28,1.047 -4.338,0.906 -4.498,0.843 -4.623,0.813 -4.906,0.747 -5.227,0.806 -5.337,0.9 -5.567,1.093 -6.687,2.117 -6.687,2.066 -6.687,1.797 -5.854,1.138 -5.458,0.761 -5.297,0.604 -4.9,0.56 -4.579,0.635 -4.341,0.691 -4.179,0.809 -4.108,0.978 -3.998,1.237 -3.973,1.479 -4.032,1.695 -3.772,1.545 -3.437,1.417 -3.141,1.519 -2.853,1.619 -2.679,1.774 -2.585,1.941 -2.566,1.749 -2.535,1.534 -2.494,1.278 -2.395,0.632 -2.274,0.271 -2.201,0.056 -2.174,-0.024 -2.147,-0.107 -2.15,-0.133 -2.152,-0.138 -2.155,-0.142 -2.161,-0.147 -2.331,-0.386 -2.583,-0.775 -2.743,-1.258 -2.849,-1.579 -2.929,-2.016 -2.939,-2.427 -2.944,-2.571 -2.939,-2.794 -2.897,-2.794 -2.853,-2.793 -2.859,-2.566 -2.843,-2.427 -2.798,-2.011 -2.731,-1.592 -2.61,-1.29 -2.451,-0.898 -2.24,-0.578 -2.01,-0.255 -2,-0.243 -1.995,-0.234 -1.99,-0.229 -1.937,-0.15 -1.966,-0.063 -2.024,0.112 -2.096,0.323 -2.212,0.674 -2.312,1.307 -2.455,2.24 -2.51,2.591 -2.167,3.3 -1.891,3.876 -1.157,3.883 -0.999,3.817 -0.938,3.784 -0.934,3.433 -0.927,3.12 -0.919,2.771 -0.912,2.338 -0.854,1.811 -0.782,1.146 -0.51,0.627 -0.265,0.325 -0.066,0.085 0.093,-0.022 0.132,0.015 0.169,0.051 -0.004,0.182 -0.181,0.458 -0.377,0.762 -0.602,1.221 -0.669,1.831 -0.727,2.348 -0.734,2.779 -0.74,3.125 -0.752,3.651 -0.756,3.914 -0.927,3.985 -1.012,4.022 -1.191,4.042 -1.397,4.015 L -0.044,8.548 C 0.192,9.365 0.441,9.699 0.963,9.646 0.968,9.646 0.973,9.642 0.98,9.641 -0.061,10.199 -1.253,10.518 -2.522,10.518"
             style="fill:#000000;fill-opacity:1;fill-rule:nonzero;stroke:none"
             id="path84"
             inkscape:connector-curvature="0" /></g><g
           id="g86"
           transform="translate(23.603,-8.4375)"><path
             d="M 0,0 C 0.174,-0.181 0.245,-0.433 0.171,-0.7 L -1.044,-6.104 C -1.118,-6.523 -1.241,-7.392 -1.13,-7.985 -0.981,-8.794 -0.662,-9.885 -0.895,-11.091 -1.02,-11.731 -1.213,-12.427 -1.536,-12.969 1.353,-12 3.434,-9.302 3.434,-6.125 3.434,-3.544 2.063,-1.279 0,0"
             style="fill:#000000;fill-opacity:1;fill-rule:nonzero;stroke:none"
             id="path88"
             inkscape:connector-curvature="0" /></g><path
           d="M 164.256,-11.693 166.754,-11.693 166.754,-21.28 164.256,-21.28 164.256,-11.693 Z"
           style="fill:#000000;fill-opacity:1;fill-rule:nonzero;stroke:none"
           id="path90"
           inkscape:connector-curvature="0" /><g
           id="g92"
           transform="translate(168.3911,-14.3115)"><path
             d="M 0,0 2.215,0 2.215,-0.953 2.242,-0.953 C 2.658,-0.254 3.397,0.202 4.243,0.202 5.116,0.202 5.895,-0.08 6.271,-0.926 6.821,-0.188 7.506,0.202 8.446,0.202 10.662,0.202 10.903,-1.477 10.903,-2.806 L 10.903,-6.969 8.621,-6.969 8.621,-2.873 C 8.621,-2.121 8.258,-1.679 7.667,-1.679 6.687,-1.679 6.593,-2.43 6.593,-3.558 L 6.593,-6.969 4.31,-6.969 4.31,-3.008 C 4.31,-2.188 4.068,-1.679 3.451,-1.679 2.632,-1.679 2.282,-2.148 2.282,-3.571 L 2.282,-6.969 0,-6.969 0,0 Z"
             style="fill:#000000;fill-opacity:1;fill-rule:nonzero;stroke:none"
             id="path94"
             inkscape:connector-curvature="0" /></g><g
           id="g96"
           transform="translate(183.6812,-20.0713)"><path
             d="M 0,0 C 1.088,0 1.451,0.617 1.396,2.055 1.075,1.853 0.483,1.813 -0.013,1.678 -0.524,1.557 -0.954,1.343 -0.954,0.792 -0.954,0.228 -0.51,0 0,0 M -2.954,3.611 C -2.914,4.524 -2.484,5.116 -1.867,5.479 -1.249,5.827 -0.443,5.962 0.349,5.962 2.001,5.962 3.599,5.6 3.599,3.625 L 3.599,0.577 C 3.599,-0.014 3.599,-0.659 3.868,-1.209 L 1.571,-1.209 C 1.491,-0.995 1.464,-0.779 1.437,-0.551 0.846,-1.169 -0.026,-1.41 -0.859,-1.41 -2.188,-1.41 -3.236,-0.739 -3.236,0.697 -3.236,2.968 -0.766,2.792 0.819,3.114 1.208,3.195 1.424,3.33 1.424,3.76 1.424,4.283 0.792,4.484 0.322,4.484 -0.309,4.484 -0.711,4.203 -0.819,3.611 L -2.954,3.611 Z"
             style="fill:#000000;fill-opacity:1;fill-rule:nonzero;stroke:none"
             id="path98"
             inkscape:connector-curvature="0" /></g><g
           id="g100"
           transform="translate(191.9907,-15.8555)"><path
             d="M 0,0 C -1.007,0 -1.33,-0.886 -1.33,-1.745 -1.33,-2.564 -0.954,-3.384 -0.014,-3.384 0.953,-3.384 1.37,-2.633 1.37,-1.759 1.37,-0.872 1.02,0 0,0 M 3.532,-4.579 C 3.532,-5.721 3.317,-7.869 0.054,-7.869 -1.571,-7.869 -3.102,-7.507 -3.371,-5.64 L -1.088,-5.64 C -1.034,-5.948 -0.914,-6.137 -0.699,-6.244 -0.497,-6.352 -0.215,-6.392 0.134,-6.392 1.222,-6.392 1.33,-5.626 1.33,-4.767 L 1.33,-4.109 1.303,-4.109 C 0.886,-4.753 0.188,-5.129 -0.551,-5.129 -2.659,-5.129 -3.612,-3.626 -3.612,-1.665 -3.612,0.188 -2.524,1.746 -0.551,1.746 0.282,1.746 0.913,1.384 1.316,0.671 L 1.343,0.671 1.343,1.544 3.532,1.544 3.532,-4.579 Z"
             style="fill:#000000;fill-opacity:1;fill-rule:nonzero;stroke:none"
             id="path102"
             inkscape:connector-curvature="0" /></g><g
           id="g104"
           transform="translate(201.7637,-17.0771)"><path
             d="M 0,0 C -0.041,0.779 -0.591,1.423 -1.357,1.423 -2.162,1.423 -2.7,0.846 -2.833,0 L 0,0 Z M -2.833,-1.275 C -2.793,-2.229 -2.243,-2.86 -1.276,-2.86 -0.726,-2.86 -0.188,-2.605 0.027,-2.095 L 2.162,-2.095 C 1.746,-3.707 0.255,-4.404 -1.303,-4.404 -3.572,-4.404 -5.116,-3.035 -5.116,-0.698 -5.116,1.437 -3.411,2.968 -1.357,2.968 1.141,2.968 2.39,1.087 2.282,-1.275 L -2.833,-1.275 Z"
             style="fill:#000000;fill-opacity:1;fill-rule:nonzero;stroke:none"
             id="path106"
             inkscape:connector-curvature="0" /></g><g
           id="g108"
           transform="translate(206.9575,-18.9844)"><path
             d="M 0,0 C 0,-0.349 0.147,-0.604 0.376,-0.778 0.591,-0.94 0.899,-1.021 1.222,-1.021 1.665,-1.021 2.296,-0.833 2.296,-0.281 2.296,0.256 1.584,0.362 1.181,0.456 -0.255,0.819 -2.055,0.859 -2.055,2.74 -2.055,4.419 -0.242,4.875 1.127,4.875 2.658,4.875 4.257,4.432 4.337,2.618 L 2.229,2.618 C 2.229,2.914 2.122,3.103 1.934,3.223 1.746,3.344 1.49,3.397 1.208,3.397 0.833,3.397 0.228,3.357 0.228,2.874 0.228,2.216 1.759,2.095 2.806,1.867 4.216,1.585 4.579,0.564 4.579,-0.014 4.579,-1.88 2.806,-2.497 1.235,-2.497 -0.417,-2.497 -2.108,-1.946 -2.175,0 L 0,0 Z"
             style="fill:#000000;fill-opacity:1;fill-rule:nonzero;stroke:none"
             id="path110"
             inkscape:connector-curvature="0" /></g><g
           id="g112"
           transform="translate(219.7363,-20.0713)"><path
             d="M 0,0 C 1.088,0 1.451,0.617 1.396,2.055 1.075,1.853 0.483,1.813 -0.013,1.678 -0.524,1.557 -0.954,1.343 -0.954,0.792 -0.954,0.228 -0.51,0 0,0 M -2.954,3.611 C -2.914,4.524 -2.484,5.116 -1.867,5.479 -1.249,5.827 -0.443,5.962 0.349,5.962 2.001,5.962 3.599,5.6 3.599,3.625 L 3.599,0.577 C 3.599,-0.014 3.599,-0.659 3.868,-1.209 L 1.571,-1.209 C 1.491,-0.995 1.464,-0.779 1.437,-0.551 0.846,-1.169 -0.026,-1.41 -0.859,-1.41 -2.188,-1.41 -3.236,-0.739 -3.236,0.697 -3.236,2.968 -0.766,2.792 0.819,3.114 1.208,3.195 1.424,3.33 1.424,3.76 1.424,4.283 0.792,4.484 0.322,4.484 -0.309,4.484 -0.711,4.203 -0.819,3.611 L -2.954,3.611 Z"
             style="fill:#000000;fill-opacity:1;fill-rule:nonzero;stroke:none"
             id="path114"
             inkscape:connector-curvature="0" /></g><g
           id="g116"
           transform="translate(224.917,-14.3115)"><path
             d="M 0,0 2.215,0 2.215,-1.222 2.242,-1.222 C 2.578,-0.336 3.357,0.135 4.337,0.135 4.512,0.135 4.7,0.121 4.875,0.081 L 4.875,-2 C 4.579,-1.92 4.311,-1.866 4.002,-1.866 2.874,-1.866 2.283,-2.646 2.283,-3.518 L 2.283,-6.969 0,-6.969 0,0 Z"
             style="fill:#000000;fill-opacity:1;fill-rule:nonzero;stroke:none"
             id="path118"
             inkscape:connector-curvature="0" /></g><g
           id="g120"
           transform="translate(235.0933,-17.0771)"><path
             d="M 0,0 C -0.041,0.779 -0.591,1.423 -1.357,1.423 -2.162,1.423 -2.7,0.846 -2.833,0 L 0,0 Z M -2.833,-1.275 C -2.793,-2.229 -2.243,-2.86 -1.276,-2.86 -0.726,-2.86 -0.188,-2.605 0.027,-2.095 L 2.162,-2.095 C 1.746,-3.707 0.255,-4.404 -1.303,-4.404 -3.572,-4.404 -5.117,-3.035 -5.117,-0.698 -5.117,1.437 -3.411,2.968 -1.357,2.968 1.141,2.968 2.39,1.087 2.282,-1.275 L -2.833,-1.275 Z"
             style="fill:#000000;fill-opacity:1;fill-rule:nonzero;stroke:none"
             id="path122"
             inkscape:connector-curvature="0" /></g><g
           id="g124"
           transform="translate(244.9448,-17.7227)"><path
             d="M 0,0 C 0,-1.222 0.349,-2.013 1.383,-2.013 2.403,-2.013 2.753,-0.953 2.753,0 2.753,0.887 2.403,1.867 1.396,1.867 0.778,1.867 0,1.438 0,0 M -2.202,3.411 -0.027,3.411 -0.027,2.605 0,2.605 C 0.443,3.264 1.114,3.613 1.92,3.613 4.109,3.613 5.035,1.732 5.035,-0.228 5.035,-2.04 4.069,-3.759 2.095,-3.759 1.235,-3.759 0.578,-3.438 0.107,-2.806 L 0.081,-2.806 0.081,-5.894 -2.202,-5.894 -2.202,3.411 Z"
             style="fill:#000000;fill-opacity:1;fill-rule:nonzero;stroke:none"
             id="path126"
             inkscape:connector-curvature="0" /></g><g
           id="g128"
           transform="translate(251.2798,-14.3115)"><path
             d="M 0,0 2.215,0 2.215,-1.222 2.242,-1.222 C 2.578,-0.336 3.357,0.135 4.337,0.135 4.512,0.135 4.7,0.121 4.875,0.081 L 4.875,-2 C 4.579,-1.92 4.311,-1.866 4.002,-1.866 2.874,-1.866 2.283,-2.646 2.283,-3.518 L 2.283,-6.969 0,-6.969 0,0 Z"
             style="fill:#000000;fill-opacity:1;fill-rule:nonzero;stroke:none"
             id="path130"
             inkscape:connector-curvature="0" /></g><g
           id="g132"
           transform="translate(260.0054,-19.7354)"><path
             d="M 0,0 C 1.061,0 1.397,1.047 1.397,1.933 1.397,2.819 1.061,3.88 0,3.88 -1.061,3.88 -1.383,2.819 -1.383,1.933 -1.383,1.047 -1.061,0 0,0 M 0,5.626 C 2.162,5.626 3.68,4.027 3.68,1.933 3.68,-0.162 2.162,-1.746 0,-1.746 -2.162,-1.746 -3.666,-0.162 -3.666,1.933 -3.666,4.027 -2.162,5.626 0,5.626"
             style="fill:#000000;fill-opacity:1;fill-rule:nonzero;stroke:none"
             id="path134"
             inkscape:connector-curvature="0" /></g><g
           id="g136"
           transform="translate(267.0796,-17.7227)"><path
             d="M 0,0 C 0,-1.222 0.349,-2.013 1.383,-2.013 2.403,-2.013 2.753,-0.953 2.753,0 2.753,0.887 2.403,1.867 1.396,1.867 0.778,1.867 0,1.438 0,0 M -2.202,3.411 -0.027,3.411 -0.027,2.605 0,2.605 C 0.443,3.264 1.114,3.613 1.92,3.613 4.109,3.613 5.035,1.732 5.035,-0.228 5.035,-2.04 4.069,-3.759 2.095,-3.759 1.235,-3.759 0.577,-3.438 0.107,-2.806 L 0.08,-2.806 0.08,-5.894 -2.202,-5.894 -2.202,3.411 Z"
             style="fill:#000000;fill-opacity:1;fill-rule:nonzero;stroke:none"
             id="path138"
             inkscape:connector-curvature="0" /></g><g
           id="g140"
           transform="translate(278.1143,-17.0771)"><path
             d="M 0,0 C -0.041,0.779 -0.591,1.423 -1.356,1.423 -2.162,1.423 -2.7,0.846 -2.833,0 L 0,0 Z M -2.833,-1.275 C -2.793,-2.229 -2.243,-2.86 -1.276,-2.86 -0.726,-2.86 -0.188,-2.605 0.026,-2.095 L 2.162,-2.095 C 1.746,-3.707 0.255,-4.404 -1.303,-4.404 -3.572,-4.404 -5.117,-3.035 -5.117,-0.698 -5.117,1.437 -3.411,2.968 -1.356,2.968 1.141,2.968 2.39,1.087 2.282,-1.275 L -2.833,-1.275 Z"
             style="fill:#000000;fill-opacity:1;fill-rule:nonzero;stroke:none"
             id="path142"
             inkscape:connector-curvature="0" /></g><g
           id="g144"
           transform="translate(281.6157,-14.3115)"><path
             d="M 0,0 2.216,0 2.216,-1.222 2.242,-1.222 C 2.578,-0.336 3.357,0.135 4.337,0.135 4.512,0.135 4.7,0.121 4.875,0.081 L 4.875,-2 C 4.579,-1.92 4.311,-1.866 4.002,-1.866 2.874,-1.866 2.283,-2.646 2.283,-3.518 L 2.283,-6.969 0,-6.969 0,0 Z"
             style="fill:#000000;fill-opacity:1;fill-rule:nonzero;stroke:none"
             id="path146"
             inkscape:connector-curvature="0" /></g><g
           id="g148"
           transform="translate(291.457,-15.7881)"><path
             d="M 0,0 -1.41,0 -1.41,-3.17 C -1.41,-3.72 -1.088,-3.841 -0.591,-3.841 -0.403,-3.841 -0.202,-3.813 0,-3.813 L 0,-5.492 C -0.417,-5.506 -0.833,-5.56 -1.249,-5.56 -3.196,-5.56 -3.693,-4.996 -3.693,-3.102 L -3.693,0 -4.848,0 -4.848,1.477 -3.693,1.477 -3.693,3.585 -1.41,3.585 -1.41,1.477 0,1.477 0,0 Z"
             style="fill:#000000;fill-opacity:1;fill-rule:nonzero;stroke:none"
             id="path150"
             inkscape:connector-curvature="0" /></g><g
           id="g152"
           transform="translate(296.2754,-21.8975)"><path
             d="M 0,0 C -0.55,-1.531 -1.369,-1.719 -2.914,-1.719 L -3.988,-1.719 -3.988,0.134 -3.196,0.134 C -2.672,0.134 -2.282,0.43 -2.282,0.913 -2.282,1.289 -2.726,2.362 -2.86,2.738 L -4.659,7.586 -2.242,7.586 -0.926,3.048 -0.899,3.048 0.417,7.586 2.753,7.586 0,0 Z"
             style="fill:#000000;fill-opacity:1;fill-rule:nonzero;stroke:none"
             id="path154"
             inkscape:connector-curvature="0" /></g><g
           id="g156"
           transform="translate(307.2422,-19.7354)"><path
             d="M 0,0 C 1.061,0 1.397,1.047 1.397,1.933 1.397,2.819 1.061,3.88 0,3.88 -1.061,3.88 -1.383,2.819 -1.383,1.933 -1.383,1.047 -1.061,0 0,0 M 0,5.626 C 2.162,5.626 3.679,4.027 3.679,1.933 3.679,-0.162 2.162,-1.746 0,-1.746 -2.162,-1.746 -3.666,-0.162 -3.666,1.933 -3.666,4.027 -2.162,5.626 0,5.626"
             style="fill:#000000;fill-opacity:1;fill-rule:nonzero;stroke:none"
             id="path158"
             inkscape:connector-curvature="0" /></g><g
           id="g160"
           transform="translate(312.6108,-15.7881)"><path
             d="M 0,0 -1.101,0 -1.101,1.477 0,1.477 C 0,3.478 0.698,4.095 2.645,4.095 3.008,4.095 3.384,4.068 3.746,4.055 L 3.746,2.443 C 3.531,2.471 3.33,2.484 3.128,2.484 2.605,2.484 2.283,2.417 2.283,1.786 L 2.283,1.477 3.652,1.477 3.652,0 2.283,0 2.283,-5.492 0,-5.492 0,0 Z"
             style="fill:#000000;fill-opacity:1;fill-rule:nonzero;stroke:none"
             id="path162"
             inkscape:connector-curvature="0" /></g><g
           id="g164"
           transform="translate(325.5117,-15.7881)"><path
             d="M 0,0 -1.41,0 -1.41,-3.17 C -1.41,-3.72 -1.087,-3.841 -0.591,-3.841 -0.403,-3.841 -0.201,-3.813 0,-3.813 L 0,-5.492 C -0.416,-5.506 -0.833,-5.56 -1.249,-5.56 -3.196,-5.56 -3.692,-4.996 -3.692,-3.102 L -3.692,0 -4.847,0 -4.847,1.477 -3.692,1.477 -3.692,3.585 -1.41,3.585 -1.41,1.477 0,1.477 0,0 Z"
             style="fill:#000000;fill-opacity:1;fill-rule:nonzero;stroke:none"
             id="path166"
             inkscape:connector-curvature="0" /></g><g
           id="g168"
           transform="translate(326.5313,-11.6934)"><path
             d="M 0,0 2.282,0 2.282,-3.571 2.309,-3.571 C 2.658,-2.859 3.598,-2.416 4.431,-2.416 6.754,-2.416 6.941,-4.108 6.941,-5.116 L 6.941,-9.587 4.658,-9.587 4.658,-6.217 C 4.658,-5.264 4.767,-4.297 3.518,-4.297 2.658,-4.297 2.282,-5.021 2.282,-5.787 L 2.282,-9.587 0,-9.587 0,0 Z"
             style="fill:#000000;fill-opacity:1;fill-rule:nonzero;stroke:none"
             id="path170"
             inkscape:connector-curvature="0" /></g><g
           id="g172"
           transform="translate(339.7686,-17.0771)"><path
             d="M 0,0 C -0.04,0.779 -0.592,1.423 -1.357,1.423 -2.163,1.423 -2.7,0.846 -2.834,0 L 0,0 Z M -2.834,-1.275 C -2.794,-2.229 -2.243,-2.86 -1.276,-2.86 -0.726,-2.86 -0.188,-2.605 0.026,-2.095 L 2.161,-2.095 C 1.745,-3.707 0.255,-4.404 -1.304,-4.404 -3.573,-4.404 -5.116,-3.035 -5.116,-0.698 -5.116,1.437 -3.411,2.968 -1.357,2.968 1.141,2.968 2.39,1.087 2.281,-1.275 L -2.834,-1.275 Z"
             style="fill:#000000;fill-opacity:1;fill-rule:nonzero;stroke:none"
             id="path174"
             inkscape:connector-curvature="0" /></g><g
           id="g176"
           transform="translate(349.3652,-17.7227)"><path
             d="M 0,0 C 0,-0.953 0.349,-2.013 1.396,-2.013 2.51,-2.013 2.752,-0.953 2.752,-0.066 2.752,0.94 2.389,1.867 1.396,1.867 0.349,1.867 0,0.887 0,0 M 4.953,-3.558 2.779,-3.558 2.779,-2.752 2.752,-2.752 C 2.309,-3.41 1.637,-3.759 0.831,-3.759 -1.357,-3.759 -2.283,-1.879 -2.283,0.081 -2.283,1.895 -1.316,3.613 0.656,3.613 1.516,3.613 2.175,3.291 2.645,2.659 L 2.672,2.659 2.672,6.029 4.953,6.029 4.953,-3.558 Z"
             style="fill:#000000;fill-opacity:1;fill-rule:nonzero;stroke:none"
             id="path178"
             inkscape:connector-curvature="0" /></g><g
           id="g180"
           transform="translate(360.6543,-17.0771)"><path
             d="M 0,0 C -0.04,0.779 -0.592,1.423 -1.357,1.423 -2.162,1.423 -2.699,0.846 -2.832,0 L 0,0 Z M -2.832,-1.275 C -2.793,-2.229 -2.243,-2.86 -1.275,-2.86 -0.725,-2.86 -0.188,-2.605 0.027,-2.095 L 2.162,-2.095 C 1.746,-3.707 0.255,-4.404 -1.303,-4.404 -3.571,-4.404 -5.115,-3.035 -5.115,-0.698 -5.115,1.437 -3.41,2.968 -1.357,2.968 1.141,2.968 2.391,1.087 2.283,-1.275 L -2.832,-1.275 Z"
             style="fill:#000000;fill-opacity:1;fill-rule:nonzero;stroke:none"
             id="path182"
             inkscape:connector-curvature="0" /></g><g
           id="g184"
           transform="translate(365.8486,-18.9844)"><path
             d="M 0,0 C 0,-0.349 0.147,-0.604 0.376,-0.778 0.591,-0.94 0.899,-1.021 1.222,-1.021 1.665,-1.021 2.296,-0.833 2.296,-0.281 2.296,0.256 1.583,0.362 1.182,0.456 -0.256,0.819 -2.056,0.859 -2.056,2.74 -2.056,4.419 -0.242,4.875 1.128,4.875 2.658,4.875 4.257,4.432 4.337,2.618 L 2.229,2.618 C 2.229,2.914 2.122,3.103 1.935,3.223 1.745,3.344 1.489,3.397 1.208,3.397 0.833,3.397 0.229,3.357 0.229,2.874 0.229,2.216 1.759,2.095 2.807,1.867 4.216,1.585 4.579,0.564 4.579,-0.014 4.579,-1.88 2.807,-2.497 1.235,-2.497 -0.417,-2.497 -2.108,-1.946 -2.175,0 L 0,0 Z"
             style="fill:#000000;fill-opacity:1;fill-rule:nonzero;stroke:none"
             id="path186"
             inkscape:connector-curvature="0" /></g><path
           d="M 371.62,-14.312 373.904,-14.312 373.904,-21.281 371.62,-21.281 371.62,-14.312 Z M 373.904,-13.438 371.62,-13.438 371.62,-11.693 373.904,-11.693 373.904,-13.438 Z"
           style="fill:#000000;fill-opacity:1;fill-rule:nonzero;stroke:none"
           id="path188"
           inkscape:connector-curvature="0" /><g
           id="g190"
           transform="translate(378.7217,-15.8555)"><path
             d="M 0,0 C -1.007,0 -1.329,-0.886 -1.329,-1.745 -1.329,-2.564 -0.954,-3.384 -0.014,-3.384 0.954,-3.384 1.37,-2.633 1.37,-1.759 1.37,-0.872 1.021,0 0,0 M 3.532,-4.579 C 3.532,-5.721 3.317,-7.869 0.054,-7.869 -1.571,-7.869 -3.101,-7.507 -3.37,-5.64 L -1.087,-5.64 C -1.034,-5.948 -0.913,-6.137 -0.698,-6.244 -0.496,-6.352 -0.214,-6.392 0.135,-6.392 1.223,-6.392 1.33,-5.626 1.33,-4.767 L 1.33,-4.109 1.304,-4.109 C 0.887,-4.753 0.188,-5.129 -0.55,-5.129 -2.659,-5.129 -3.612,-3.626 -3.612,-1.665 -3.612,0.188 -2.524,1.746 -0.55,1.746 0.283,1.746 0.913,1.384 1.317,0.671 L 1.343,0.671 1.343,1.544 3.532,1.544 3.532,-4.579 Z"
             style="fill:#000000;fill-opacity:1;fill-rule:nonzero;stroke:none"
             id="path192"
             inkscape:connector-curvature="0" /></g><g
           id="g194"
           transform="translate(383.7148,-14.3115)"><path
             d="M 0,0 2.215,0 2.215,-0.953 2.242,-0.953 C 2.659,-0.241 3.599,0.202 4.432,0.202 6.754,0.202 6.943,-1.49 6.943,-2.498 L 6.943,-6.969 4.659,-6.969 4.659,-3.599 C 4.659,-2.646 4.767,-1.679 3.519,-1.679 2.659,-1.679 2.281,-2.403 2.281,-3.169 L 2.281,-6.969 0,-6.969 0,0 Z"
             style="fill:#000000;fill-opacity:1;fill-rule:nonzero;stroke:none"
             id="path196"
             inkscape:connector-curvature="0" /></g><g
           id="g198"
           transform="translate(396.9521,-17.0771)"><path
             d="M 0,0 C -0.04,0.779 -0.591,1.423 -1.356,1.423 -2.162,1.423 -2.7,0.846 -2.834,0 L 0,0 Z M -2.834,-1.275 C -2.794,-2.229 -2.243,-2.86 -1.276,-2.86 -0.726,-2.86 -0.188,-2.605 0.026,-2.095 L 2.161,-2.095 C 1.745,-3.707 0.255,-4.404 -1.303,-4.404 -3.573,-4.404 -5.116,-3.035 -5.116,-0.698 -5.116,1.437 -3.411,2.968 -1.356,2.968 1.142,2.968 2.39,1.087 2.282,-1.275 L -2.834,-1.275 Z"
             style="fill:#000000;fill-opacity:1;fill-rule:nonzero;stroke:none"
             id="path200"
             inkscape:connector-curvature="0" /></g><g
           id="g202"
           transform="translate(400.4531,-14.3115)"><path
             d="M 0,0 2.217,0 2.217,-1.222 2.243,-1.222 C 2.578,-0.336 3.357,0.135 4.338,0.135 4.512,0.135 4.701,0.121 4.875,0.081 L 4.875,-2 C 4.579,-1.92 4.311,-1.866 4.003,-1.866 2.873,-1.866 2.284,-2.646 2.284,-3.518 L 2.284,-6.969 0,-6.969 0,0 Z"
             style="fill:#000000;fill-opacity:1;fill-rule:nonzero;stroke:none"
             id="path204"
             inkscape:connector-curvature="0" /></g><path
           d="M 404.963,-18.782 407.461,-18.782 407.461,-21.28 404.963,-21.28 404.963,-18.782 Z"
           style="fill:#000000;fill-opacity:1;fill-rule:nonzero;stroke:none"
           id="path206"
           inkscape:connector-curvature="0" /><g
           id="g208"
           transform="translate(422.7256,-15.1172)"><path
             d="M 0,0 C -0.136,0.968 -0.886,1.478 -1.935,1.478 -3.544,1.478 -4.163,0.054 -4.163,-1.369 -4.163,-2.793 -3.544,-4.216 -1.935,-4.216 -0.766,-4.216 -0.094,-3.545 0,-2.443 L 2.498,-2.443 C 2.362,-4.914 0.55,-6.364 -1.882,-6.364 -4.781,-6.364 -6.661,-4.148 -6.661,-1.369 -6.661,1.411 -4.781,3.626 -1.882,3.626 0.188,3.626 2.429,2.311 2.498,0 L 0,0 Z"
             style="fill:#000000;fill-opacity:1;fill-rule:nonzero;stroke:none"
             id="path210"
             inkscape:connector-curvature="0" /></g><g
           id="g212"
           transform="translate(426.4551,-11.6934)"><path
             d="M 0,0 2.283,0 2.283,-3.571 2.31,-3.571 C 2.658,-2.859 3.598,-2.416 4.43,-2.416 6.754,-2.416 6.941,-4.108 6.941,-5.116 L 6.941,-9.587 4.66,-9.587 4.66,-6.217 C 4.66,-5.264 4.768,-4.297 3.518,-4.297 2.658,-4.297 2.283,-5.021 2.283,-5.787 L 2.283,-9.587 0,-9.587 0,0 Z"
             style="fill:#000000;fill-opacity:1;fill-rule:nonzero;stroke:none"
             id="path214"
             inkscape:connector-curvature="0" /></g><g
           id="g216"
           transform="translate(439.6914,-17.0771)"><path
             d="M 0,0 C -0.039,0.779 -0.591,1.423 -1.356,1.423 -2.162,1.423 -2.698,0.846 -2.834,0 L 0,0 Z M -2.834,-1.275 C -2.794,-2.229 -2.242,-2.86 -1.275,-2.86 -0.725,-2.86 -0.189,-2.605 0.027,-2.095 L 2.162,-2.095 C 1.746,-3.707 0.256,-4.404 -1.303,-4.404 -3.57,-4.404 -5.115,-3.035 -5.115,-0.698 -5.115,1.437 -3.41,2.968 -1.356,2.968 1.142,2.968 2.389,1.087 2.282,-1.275 L -2.834,-1.275 Z"
             style="fill:#000000;fill-opacity:1;fill-rule:nonzero;stroke:none"
             id="path218"
             inkscape:connector-curvature="0" /></g><g
           id="g220"
           transform="translate(447.6504,-16.8623)"><path
             d="M 0,0 C -0.014,0.591 -0.535,1.007 -1.113,1.007 -2.389,1.007 -2.592,-0.081 -2.592,-1.048 -2.592,-1.947 -2.201,-2.873 -1.234,-2.873 -0.441,-2.873 -0.04,-2.417 0.067,-1.679 L 2.283,-1.679 C 2.083,-3.545 0.632,-4.619 -1.221,-4.619 -3.314,-4.619 -4.873,-3.183 -4.873,-1.048 -4.873,1.168 -3.465,2.753 -1.221,2.753 0.512,2.753 2.057,1.84 2.217,0 L 0,0 Z"
             style="fill:#000000;fill-opacity:1;fill-rule:nonzero;stroke:none"
             id="path222"
             inkscape:connector-curvature="0" /></g><g
           id="g224"
           transform="translate(451.0732,-11.6934)"><path
             d="M 0,0 2.283,0 2.283,-4.94 4.364,-2.618 7.009,-2.618 4.458,-5.25 7.333,-9.587 4.578,-9.587 2.872,-6.78 2.283,-7.358 2.283,-9.587 0,-9.587 0,0 Z"
             style="fill:#000000;fill-opacity:1;fill-rule:nonzero;stroke:none"
             id="path226"
             inkscape:connector-curvature="0" /></g><path
           d="M 463.342,-11.693 465.623,-11.693 465.623,-21.28 463.342,-21.28 463.342,-11.693 Z"
           style="fill:#000000;fill-opacity:1;fill-rule:nonzero;stroke:none"
           id="path228"
           inkscape:connector-curvature="0" /><path
           d="M 467.316,-14.312 469.597,-14.312 469.597,-21.281 467.316,-21.281 467.316,-14.312 Z M 469.598,-13.438 467.317,-13.438 467.317,-11.693 469.598,-11.693 469.598,-13.438 Z"
           style="fill:#000000;fill-opacity:1;fill-rule:nonzero;stroke:none"
           id="path230"
           inkscape:connector-curvature="0" /><g
           id="g232"
           transform="translate(475.7471,-16.8623)"><path
             d="M 0,0 C -0.013,0.591 -0.538,1.007 -1.114,1.007 -2.391,1.007 -2.591,-0.081 -2.591,-1.048 -2.591,-1.947 -2.203,-2.873 -1.236,-2.873 -0.444,-2.873 -0.04,-2.417 0.067,-1.679 L 2.284,-1.679 C 2.081,-3.545 0.632,-4.619 -1.224,-4.619 -3.317,-4.619 -4.875,-3.183 -4.875,-1.048 -4.875,1.168 -3.464,2.753 -1.224,2.753 0.511,2.753 2.054,1.84 2.215,0 L 0,0 Z"
             style="fill:#000000;fill-opacity:1;fill-rule:nonzero;stroke:none"
             id="path234"
             inkscape:connector-curvature="0" /></g><g
           id="g236"
           transform="translate(483.9492,-17.0771)"><path
             d="M 0,0 C -0.041,0.779 -0.592,1.423 -1.357,1.423 -2.163,1.423 -2.699,0.846 -2.835,0 L 0,0 Z M -2.835,-1.275 C -2.795,-2.229 -2.244,-2.86 -1.277,-2.86 -0.726,-2.86 -0.189,-2.605 0.026,-2.095 L 2.16,-2.095 C 1.746,-3.707 0.254,-4.404 -1.304,-4.404 -3.572,-4.404 -5.117,-3.035 -5.117,-0.698 -5.117,1.437 -3.411,2.968 -1.357,2.968 1.141,2.968 2.389,1.087 2.281,-1.275 L -2.835,-1.275 Z"
             style="fill:#000000;fill-opacity:1;fill-rule:nonzero;stroke:none"
             id="path238"
             inkscape:connector-curvature="0" /></g><g
           id="g240"
           transform="translate(487.3691,-14.3115)"><path
             d="M 0,0 2.217,0 2.217,-0.953 2.244,-0.953 C 2.658,-0.241 3.6,0.202 4.432,0.202 6.756,0.202 6.943,-1.49 6.943,-2.498 L 6.943,-6.969 4.66,-6.969 4.66,-3.599 C 4.66,-2.646 4.768,-1.679 3.518,-1.679 2.658,-1.679 2.283,-2.403 2.283,-3.169 L 2.283,-6.969 0,-6.969 0,0 Z"
             style="fill:#000000;fill-opacity:1;fill-rule:nonzero;stroke:none"
             id="path242"
             inkscape:connector-curvature="0" /></g><g
           id="g244"
           transform="translate(497.5977,-18.9844)"><path
             d="M 0,0 C 0,-0.349 0.148,-0.604 0.377,-0.778 0.592,-0.94 0.9,-1.021 1.223,-1.021 1.666,-1.021 2.297,-0.833 2.297,-0.281 2.297,0.256 1.586,0.362 1.184,0.456 -0.254,0.819 -2.053,0.859 -2.053,2.74 -2.053,4.419 -0.24,4.875 1.129,4.875 2.658,4.875 4.258,4.432 4.338,2.618 L 2.23,2.618 C 2.23,2.914 2.123,3.103 1.934,3.223 1.746,3.344 1.492,3.397 1.211,3.397 0.834,3.397 0.229,3.357 0.229,2.874 0.229,2.216 1.76,2.095 2.807,1.867 4.217,1.585 4.58,0.564 4.58,-0.014 4.58,-1.88 2.807,-2.497 1.236,-2.497 -0.414,-2.497 -2.107,-1.946 -2.174,0 L 0,0 Z"
             style="fill:#000000;fill-opacity:1;fill-rule:nonzero;stroke:none"
             id="path246"
             inkscape:connector-curvature="0" /></g><g
           id="g248"
           transform="translate(508.0703,-17.0771)"><path
             d="M 0,0 C -0.041,0.779 -0.59,1.423 -1.355,1.423 -2.162,1.423 -2.699,0.846 -2.834,0 L 0,0 Z M -2.834,-1.275 C -2.793,-2.229 -2.242,-2.86 -1.275,-2.86 -0.727,-2.86 -0.188,-2.605 0.027,-2.095 L 2.162,-2.095 C 1.746,-3.707 0.254,-4.404 -1.303,-4.404 -3.572,-4.404 -5.117,-3.035 -5.117,-0.698 -5.117,1.437 -3.412,2.968 -1.355,2.968 1.143,2.968 2.391,1.087 2.283,-1.275 L -2.834,-1.275 Z"
             style="fill:#000000;fill-opacity:1;fill-rule:nonzero;stroke:none"
             id="path250"
             inkscape:connector-curvature="0" /></g><g
           id="g252"
           transform="translate(516.2168,-15.7881)"><path
             d="M 0,0 -1.102,0 -1.102,1.477 0,1.477 C 0,3.478 0.697,4.095 2.645,4.095 3.008,4.095 3.383,4.068 3.748,4.055 L 3.748,2.443 C 3.531,2.471 3.33,2.484 3.129,2.484 2.604,2.484 2.283,2.417 2.283,1.786 L 2.283,1.477 3.652,1.477 3.652,0 2.283,0 2.283,-5.492 0,-5.492 0,0 Z"
             style="fill:#000000;fill-opacity:1;fill-rule:nonzero;stroke:none"
             id="path254"
             inkscape:connector-curvature="0" /></g><g
           id="g256"
           transform="translate(524.0176,-19.7354)"><path
             d="M 0,0 C 1.061,0 1.396,1.047 1.396,1.933 1.396,2.819 1.061,3.88 0,3.88 -1.063,3.88 -1.383,2.819 -1.383,1.933 -1.383,1.047 -1.063,0 0,0 M 0,5.626 C 2.162,5.626 3.68,4.027 3.68,1.933 3.68,-0.162 2.162,-1.746 0,-1.746 -2.162,-1.746 -3.666,-0.162 -3.666,1.933 -3.666,4.027 -2.162,5.626 0,5.626"
             style="fill:#000000;fill-opacity:1;fill-rule:nonzero;stroke:none"
             id="path258"
             inkscape:connector-curvature="0" /></g><g
           id="g260"
           transform="translate(528.9688,-14.3115)"><path
             d="M 0,0 2.215,0 2.215,-1.222 2.242,-1.222 C 2.58,-0.336 3.357,0.135 4.338,0.135 4.512,0.135 4.699,0.121 4.875,0.081 L 4.875,-2 C 4.58,-1.92 4.311,-1.866 4.002,-1.866 2.873,-1.866 2.283,-2.646 2.283,-3.518 L 2.283,-6.969 0,-6.969 0,0 Z"
             style="fill:#000000;fill-opacity:1;fill-rule:nonzero;stroke:none"
             id="path262"
             inkscape:connector-curvature="0" /></g><g
           id="g264"
           transform="translate(541.0371,-17.7227)"><path
             d="M 0,0 C 0,-1.222 0.35,-2.013 1.383,-2.013 2.402,-2.013 2.754,-0.953 2.754,0 2.754,0.887 2.402,1.867 1.396,1.867 0.779,1.867 0,1.438 0,0 M -2.203,3.411 -0.025,3.411 -0.025,2.605 0,2.605 C 0.443,3.264 1.115,3.613 1.92,3.613 4.107,3.613 5.037,1.732 5.037,-0.228 5.037,-2.04 4.068,-3.759 2.094,-3.759 1.234,-3.759 0.576,-3.438 0.107,-2.806 L 0.082,-2.806 0.082,-5.894 -2.203,-5.894 -2.203,3.411 Z"
             style="fill:#000000;fill-opacity:1;fill-rule:nonzero;stroke:none"
             id="path266"
             inkscape:connector-curvature="0" /></g><g
           id="g268"
           transform="translate(552.0723,-17.0771)"><path
             d="M 0,0 C -0.041,0.779 -0.59,1.423 -1.355,1.423 -2.16,1.423 -2.699,0.846 -2.832,0 L 0,0 Z M -2.832,-1.275 C -2.793,-2.229 -2.242,-2.86 -1.275,-2.86 -0.725,-2.86 -0.188,-2.605 0.027,-2.095 L 2.162,-2.095 C 1.746,-3.707 0.254,-4.404 -1.301,-4.404 -3.572,-4.404 -5.115,-3.035 -5.115,-0.698 -5.115,1.437 -3.41,2.968 -1.355,2.968 1.143,2.968 2.391,1.087 2.283,-1.275 L -2.832,-1.275 Z"
             style="fill:#000000;fill-opacity:1;fill-rule:nonzero;stroke:none"
             id="path270"
             inkscape:connector-curvature="0" /></g><g
           id="g272"
           transform="translate(555.5742,-14.3115)"><path
             d="M 0,0 2.215,0 2.215,-1.222 2.242,-1.222 C 2.58,-0.336 3.357,0.135 4.338,0.135 4.512,0.135 4.699,0.121 4.875,0.081 L 4.875,-2 C 4.58,-1.92 4.311,-1.866 4.002,-1.866 2.873,-1.866 2.283,-2.646 2.283,-3.518 L 2.283,-6.969 0,-6.969 0,0 Z"
             style="fill:#000000;fill-opacity:1;fill-rule:nonzero;stroke:none"
             id="path274"
             inkscape:connector-curvature="0" /></g><g
           id="g276"
           transform="translate(561.2129,-14.3115)"><path
             d="M 0,0 2.215,0 2.215,-0.953 2.242,-0.953 C 2.658,-0.254 3.396,0.202 4.242,0.202 5.115,0.202 5.895,-0.08 6.27,-0.926 6.82,-0.188 7.506,0.202 8.445,0.202 10.662,0.202 10.904,-1.477 10.904,-2.806 L 10.904,-6.969 8.619,-6.969 8.619,-2.873 C 8.619,-2.121 8.258,-1.679 7.666,-1.679 6.688,-1.679 6.594,-2.43 6.594,-3.558 L 6.594,-6.969 4.311,-6.969 4.311,-3.008 C 4.311,-2.188 4.068,-1.679 3.449,-1.679 2.631,-1.679 2.283,-2.148 2.283,-3.571 L 2.283,-6.969 0,-6.969 0,0 Z"
             style="fill:#000000;fill-opacity:1;fill-rule:nonzero;stroke:none"
             id="path278"
             inkscape:connector-curvature="0" /></g><path
           d="M 573.723,-14.312 576.006,-14.312 576.006,-21.281 573.723,-21.281 573.723,-14.312 Z M 576.006,-13.438 573.723,-13.438 573.723,-11.693 576.006,-11.693 576.006,-13.438 Z"
           style="fill:#000000;fill-opacity:1;fill-rule:nonzero;stroke:none"
           id="path280"
           inkscape:connector-curvature="0" /><g
           id="g282"
           transform="translate(581.8184,-15.7881)"><path
             d="M 0,0 -1.41,0 -1.41,-3.17 C -1.41,-3.72 -1.086,-3.841 -0.592,-3.841 -0.402,-3.841 -0.201,-3.813 0,-3.813 L 0,-5.492 C -0.414,-5.506 -0.832,-5.56 -1.248,-5.56 -3.195,-5.56 -3.691,-4.996 -3.691,-3.102 L -3.691,0 -4.848,0 -4.848,1.477 -3.691,1.477 -3.691,3.585 -1.41,3.585 -1.41,1.477 0,1.477 0,0 Z"
             style="fill:#000000;fill-opacity:1;fill-rule:nonzero;stroke:none"
             id="path284"
             inkscape:connector-curvature="0" /></g><g
           id="g286"
           transform="translate(587.041,-15.7881)"><path
             d="M 0,0 -1.412,0 -1.412,-3.17 C -1.412,-3.72 -1.088,-3.841 -0.592,-3.841 -0.402,-3.841 -0.201,-3.813 0,-3.813 L 0,-5.492 C -0.416,-5.506 -0.834,-5.56 -1.248,-5.56 -3.197,-5.56 -3.693,-4.996 -3.693,-3.102 L -3.693,0 -4.85,0 -4.85,1.477 -3.693,1.477 -3.693,3.585 -1.412,3.585 -1.412,1.477 0,1.477 0,0 Z"
             style="fill:#000000;fill-opacity:1;fill-rule:nonzero;stroke:none"
             id="path288"
             inkscape:connector-curvature="0" /></g><g
           id="g290"
           transform="translate(592.8398,-17.0771)"><path
             d="M 0,0 C -0.041,0.779 -0.592,1.423 -1.357,1.423 -2.162,1.423 -2.699,0.846 -2.834,0 L 0,0 Z M -2.834,-1.275 C -2.795,-2.229 -2.242,-2.86 -1.277,-2.86 -0.725,-2.86 -0.189,-2.605 0.027,-2.095 L 2.16,-2.095 C 1.746,-3.707 0.254,-4.404 -1.303,-4.404 -3.572,-4.404 -5.115,-3.035 -5.115,-0.698 -5.115,1.437 -3.41,2.968 -1.357,2.968 1.141,2.968 2.389,1.087 2.281,-1.275 L -2.834,-1.275 Z"
             style="fill:#000000;fill-opacity:1;fill-rule:nonzero;stroke:none"
             id="path292"
             inkscape:connector-curvature="0" /></g><g
           id="g294"
           transform="translate(598.207,-17.7227)"><path
             d="M 0,0 C 0,-0.953 0.35,-2.013 1.396,-2.013 2.512,-2.013 2.754,-0.953 2.754,-0.066 2.754,0.94 2.391,1.867 1.396,1.867 0.35,1.867 0,0.887 0,0 M 4.955,-3.558 2.781,-3.558 2.781,-2.752 2.754,-2.752 C 2.311,-3.41 1.639,-3.759 0.832,-3.759 -1.355,-3.759 -2.281,-1.879 -2.281,0.081 -2.281,1.895 -1.314,3.613 0.658,3.613 1.518,3.613 2.176,3.291 2.645,2.659 L 2.674,2.659 2.674,6.029 4.955,6.029 4.955,-3.558 Z"
             style="fill:#000000;fill-opacity:1;fill-rule:nonzero;stroke:none"
             id="path296"
             inkscape:connector-curvature="0" /></g><g
           id="g298"
           transform="translate(615.875,-21.2803)"><path
             d="M 0,0 -2.215,0 -2.215,0.953 -2.242,0.953 C -2.672,0.242 -3.557,-0.201 -4.363,-0.201 -6.365,-0.201 -6.941,0.953 -6.941,2.779 L -6.941,6.969 -4.66,6.969 -4.66,2.928 C -4.66,2.001 -4.256,1.679 -3.531,1.679 -3.035,1.679 -2.283,2.001 -2.283,3.236 L -2.283,6.969 0,6.969 0,0 Z"
             style="fill:#000000;fill-opacity:1;fill-rule:nonzero;stroke:none"
             id="path300"
             inkscape:connector-curvature="0" /></g><g
           id="g302"
           transform="translate(619.1758,-18.9844)"><path
             d="M 0,0 C 0,-0.349 0.146,-0.604 0.375,-0.778 0.59,-0.94 0.898,-1.021 1.221,-1.021 1.664,-1.021 2.295,-0.833 2.295,-0.281 2.295,0.256 1.584,0.362 1.182,0.456 -0.256,0.819 -2.057,0.859 -2.057,2.74 -2.057,4.419 -0.244,4.875 1.127,4.875 2.658,4.875 4.256,4.432 4.338,2.618 L 2.229,2.618 C 2.229,2.914 2.121,3.103 1.934,3.223 1.746,3.344 1.488,3.397 1.207,3.397 0.832,3.397 0.229,3.357 0.229,2.874 0.229,2.216 1.76,2.095 2.807,1.867 4.217,1.585 4.578,0.564 4.578,-0.014 4.578,-1.88 2.807,-2.497 1.234,-2.497 -0.418,-2.497 -2.109,-1.946 -2.176,0 L 0,0 Z"
             style="fill:#000000;fill-opacity:1;fill-rule:nonzero;stroke:none"
             id="path304"
             inkscape:connector-curvature="0" /></g><g
           id="g306"
           transform="translate(629.6465,-17.0771)"><path
             d="M 0,0 C -0.039,0.779 -0.59,1.423 -1.355,1.423 -2.162,1.423 -2.697,0.846 -2.834,0 L 0,0 Z M -2.834,-1.275 C -2.793,-2.229 -2.242,-2.86 -1.275,-2.86 -0.725,-2.86 -0.189,-2.605 0.027,-2.095 L 2.162,-2.095 C 1.746,-3.707 0.256,-4.404 -1.303,-4.404 -3.57,-4.404 -5.115,-3.035 -5.115,-0.698 -5.115,1.437 -3.41,2.968 -1.355,2.968 1.143,2.968 2.391,1.087 2.283,-1.275 L -2.834,-1.275 Z"
             style="fill:#000000;fill-opacity:1;fill-rule:nonzero;stroke:none"
             id="path308"
             inkscape:connector-curvature="0" /></g><path
           d="M 633.176,-18.782 635.674,-18.782 635.674,-21.28 633.176,-21.28 633.176,-18.782 Z"
           style="fill:#000000;fill-opacity:1;fill-rule:nonzero;stroke:none"
           id="path310"
           inkscape:connector-curvature="0" /></g></g></g></svg>